<svg width="30" height="30" viewBox="0 0 30 30" fill="none" xmlns="http://www.w3.org/2000/svg">
<path fill-rule="evenodd" clip-rule="evenodd" d="M9.02462 1.66675H24.8864C25.4102 1.66675 25.8333 2.09234 25.8333 2.61913V24.2858C25.8333 24.4167 25.7268 24.5239 25.5966 24.5239H23.9394C23.8092 24.5239 23.7027 24.4167 23.7027 24.2858V3.80961H9.02462C8.89441 3.80961 8.78788 3.70246 8.78788 3.57151V1.90484C8.78788 1.77389 8.89441 1.66675 9.02462 1.66675ZM5.94697 5.47627H21.0985C21.6223 5.47627 22.0455 5.90187 22.0455 6.42865V27.381C22.0455 27.9078 21.6223 28.3334 21.0985 28.3334H11.0754C9.48581 28.3334 7.61782 28.3334 5.99975 28.3334C5.44747 28.3334 5 27.8868 5 27.3346C5 25.6262 5 22.4193 5 22.2233V6.42865C5 5.90187 5.42318 5.47627 5.94697 5.47627ZM17.8135 16.1783C17.8896 16.3241 17.9293 16.486 17.9294 16.6503C17.9293 16.8146 17.8896 16.9765 17.8135 17.1223C17.7374 17.268 17.6272 17.3934 17.4922 17.4877L12.364 21.0672C12.2103 21.1745 12.0301 21.2378 11.8428 21.2501C11.6556 21.2624 11.4686 21.2232 11.3022 21.1368C11.1357 21.0505 10.9962 20.9203 10.8988 20.7604C10.8015 20.6004 10.7499 20.4169 10.7499 20.2298V16.6503V13.0708C10.7499 12.8837 10.8015 12.7002 10.8988 12.5402C10.9962 12.3803 11.1357 12.2501 11.3022 12.1638C11.4686 12.0774 11.6556 12.0382 11.8428 12.0505C12.0301 12.0628 12.2103 12.1261 12.364 12.2334L17.4922 15.8129C17.6272 15.9072 17.7374 16.0326 17.8135 16.1783Z" fill="#E4B764"/>
</svg>
