<svg width="30" height="30" viewBox="0 0 30 30" fill="none" xmlns="http://www.w3.org/2000/svg">
<path d="M28.3333 25.644C28.3333 25.9153 28.2252 26.1754 28.0329 26.3672C27.8405 26.559 27.5797 26.6667 27.3077 26.6667H2.69227C2.42025 26.6667 2.15937 26.559 1.96703 26.3672C1.77468 26.1754 1.66663 25.9153 1.66663 25.644C1.66663 25.3728 1.77468 25.1126 1.96703 24.9208C2.15937 24.729 2.42025 24.6213 2.69227 24.6213H27.3077C27.5797 24.6213 27.8405 24.729 28.0329 24.9208C28.2252 25.1126 28.3333 25.3728 28.3333 25.644ZM28.3333 6.2122V20.5304C28.3333 21.0729 28.1172 21.5931 27.7325 21.9767C27.3478 22.3603 26.826 22.5758 26.282 22.5758H3.71791C3.17387 22.5758 2.65212 22.3603 2.26743 21.9767C1.88274 21.5931 1.66663 21.0729 1.66663 20.5304V6.2122C1.66663 5.66971 1.88274 5.14944 2.26743 4.76585C2.65212 4.38225 3.17387 4.16675 3.71791 4.16675H26.282C26.826 4.16675 27.3478 4.38225 27.7325 4.76585C28.1172 5.14944 28.3333 5.66971 28.3333 6.2122ZM19.6153 13.3713C19.6153 13.207 19.5755 13.0451 19.4994 12.8993C19.4233 12.7535 19.3131 12.6282 19.1782 12.5339L14.05 8.95439C13.8963 8.84705 13.716 8.78379 13.5288 8.77151C13.3416 8.75923 13.1546 8.7984 12.9881 8.88475C12.8217 8.9711 12.6822 9.10132 12.5848 9.26124C12.4874 9.42116 12.4359 9.60466 12.4359 9.79175V13.3713V16.9508C12.4359 17.1379 12.4874 17.3214 12.5848 17.4813C12.6822 17.6413 12.8217 17.7715 12.9881 17.8578C13.1546 17.9442 13.3416 17.9834 13.5288 17.9711C13.716 17.9588 13.8963 17.8955 14.05 17.7882L19.1782 14.2087C19.3131 14.1144 19.4233 13.989 19.4994 13.8433C19.5755 13.6975 19.6153 13.5356 19.6153 13.3713Z" fill="url(#paint0_linear_22512_14)"/>
<defs>
<linearGradient id="paint0_linear_22512_14" x1="15" y1="4.16675" x2="15" y2="26.6667" gradientUnits="userSpaceOnUse">
<stop stop-color="#F8E889"/>
<stop offset="1" stop-color="#E4B764"/>
</linearGradient>
</defs>
</svg>
