<svg width="30" height="30" viewBox="0 0 30 30" fill="none" xmlns="http://www.w3.org/2000/svg">
<path d="M1.66675 6.87508C1.66675 5.3855 2.86675 4.16675 4.33341 4.16675H25.6667C26.374 4.16675 27.0523 4.45209 27.5524 4.96C28.0525 5.46791 28.3334 6.15679 28.3334 6.87508V23.1251C28.3334 23.8434 28.0525 24.5323 27.5524 25.0402C27.0523 25.5481 26.374 25.8334 25.6667 25.8334H4.33341C3.62617 25.8334 2.94789 25.5481 2.4478 25.0402C1.9477 24.5323 1.66675 23.8434 1.66675 23.1251V6.87508ZM9.66675 6.87508V23.1251H20.3334V6.87508H9.66675ZM4.33341 8.22925V10.9376H7.00008V8.22925H4.33341ZM4.33341 13.6459V16.3542H7.00008V13.6459H4.33341ZM4.33341 19.0626V21.7709H7.00008V19.0626H4.33341ZM23.0001 8.22925V10.9376H25.6667V8.22925H23.0001ZM23.0001 13.6459V16.3542H25.6667V13.6459H23.0001ZM23.0001 19.0626V21.7709H25.6667V19.0626H23.0001ZM12.3334 10.9376L19.0001 15.0001L12.3334 19.0626V10.9376Z" fill="url(#paint0_linear_22512_50)"/>
<defs>
<linearGradient id="paint0_linear_22512_50" x1="15.0001" y1="4.16675" x2="15.0001" y2="25.8334" gradientUnits="userSpaceOnUse">
<stop stop-color="#F8E889"/>
<stop offset="1" stop-color="#E4B764"/>
</linearGradient>
</defs>
</svg>
