<svg width="30" height="30" viewBox="0 0 30 30" fill="none" xmlns="http://www.w3.org/2000/svg">
<path d="M14.6081 25.2816C12.202 22.909 9.17387 21.0648 5.88245 20.9715V4.90264L5.96365 4.82975C9.2983 4.91066 12.2898 6.97639 14.6081 9.48604V25.2816ZM7.3389 12.1444C7.02194 12.2238 6.94139 12.7669 7.21906 12.9637C7.42993 13.1131 8.32384 13.2756 8.65259 13.3864C9.85953 13.7939 11.0396 14.466 12.0842 15.2408C12.3409 15.431 13.1424 16.1884 13.3304 16.2554C13.7515 16.4063 14.0789 15.8217 13.6768 15.3778C12.6676 14.2626 10.1693 12.9075 8.79928 12.4585C8.47839 12.3536 7.62705 12.0715 7.33824 12.1437L7.3389 12.1444ZM7.33955 16.5084C7.00229 16.5915 6.95449 17.168 7.23608 17.3641C9.51048 17.8284 11.5275 19.0567 13.3317 20.6202C13.7862 20.7149 14.0678 20.1967 13.7272 19.7965C13.5275 19.5625 12.9486 19.1419 12.6827 18.9408C11.6401 18.1506 10.3644 17.4042 9.16536 16.9632C8.80779 16.832 7.64735 16.4326 7.33955 16.5084Z" fill="url(#paint0_linear_22512_64)"/>
<path d="M21.8137 1.82007V17.9159C21.0953 18.1397 20.4175 18.6711 19.8307 19.1733C18.0691 20.6785 16.6945 22.6611 15.4411 24.6817V9.43137C16.0449 8.31978 16.6676 7.21839 17.3821 6.19062C18.5733 4.47695 20.0436 2.77494 21.8137 1.82007Z" fill="url(#paint1_linear_22512_64)"/>
<path d="M24.1667 4.821V20.9715C23.9067 21.0772 23.6264 20.9977 23.3585 21.0269C21.7135 21.2055 20.1234 21.8353 18.6755 22.6895L17.0586 23.8084C18.2302 22.0292 19.7024 20.1515 21.4692 19.088C21.7384 18.9262 22.3389 18.7163 22.5177 18.5639C22.5995 18.4939 22.6336 18.4006 22.6722 18.2993L22.6932 5.02145C22.7207 4.88952 23.9617 4.83193 24.166 4.82173L24.1667 4.821Z" fill="url(#paint2_linear_22512_64)"/>
<path d="M3.43124 10.1136V26.1278C3.43124 26.2306 3.65586 26.5331 3.79797 26.4835L12.5498 26.4558C12.7986 26.3961 13.314 25.9784 13.5013 25.9922C13.5891 25.9988 14.3153 26.4063 14.2649 26.4821C13.9191 26.6053 13.6159 26.8458 13.2832 26.9996C13.1156 27.0769 12.6244 27.3014 12.4758 27.3014H2.5V10.1136H3.43124Z" fill="url(#paint3_linear_22512_64)"/>
<path d="M27.5 10.1136V27.3006H17.5242C17.4339 27.3006 17.0756 27.1541 16.961 27.1089C16.538 26.9406 16.1588 26.6475 15.7351 26.4821C15.8766 26.3378 16.3769 25.9959 16.5439 25.9959C16.7109 25.9959 17.3297 26.4828 17.4751 26.4828H26.5681V10.1953L26.6415 10.1136H27.5Z" fill="url(#paint4_linear_22512_64)"/>
<path d="M5.04879 7.65792V21.5984C5.04879 21.6312 5.17911 21.8127 5.21906 21.8455C5.46922 22.0466 6.11952 21.9242 6.44761 21.9512C8.04551 22.0816 9.78225 22.7442 11.1601 23.6357L11.7639 24.081C9.30092 23.444 6.75409 23.1546 4.26424 23.8084V7.82193L5.04879 7.65792Z" fill="url(#paint5_linear_22512_64)"/>
<path d="M25.7358 7.82193V23.8084C23.2171 23.1305 20.5406 23.3689 18.0887 24.2443C19.6015 23.0547 21.5904 22.1137 23.4568 21.9541C23.7901 21.9256 24.6139 22.0204 24.8536 21.817C24.9014 21.7762 25.0003 21.5933 25.0003 21.5444V7.65792L25.7358 7.82193Z" fill="url(#paint6_linear_22512_64)"/>
<path d="M25.7358 25.5542H17.6722C17.6631 25.5542 17.5851 25.4667 17.5989 25.4456C18.333 25.1518 19.0776 24.8741 19.8445 24.6984C21.3035 24.3631 22.8019 24.2691 24.2839 24.4703C24.538 24.5045 25.4784 24.6452 25.6532 24.7465C25.8281 24.8479 25.7024 25.3559 25.7364 25.5549L25.7358 25.5542Z" fill="url(#paint7_linear_22512_64)"/>
<path d="M4.2649 25.5542C4.29764 25.3785 4.18435 24.8136 4.34741 24.7458C7.04879 24.108 9.87786 24.3566 12.4509 25.4456C12.4718 25.5002 12.3369 25.5542 12.3284 25.5542H4.2649Z" fill="url(#paint8_linear_22512_64)"/>
<defs>
<linearGradient id="paint0_linear_22512_64" x1="15" y1="1.82007" x2="15" y2="27.3014" gradientUnits="userSpaceOnUse">
<stop stop-color="#F8E889"/>
<stop offset="1" stop-color="#E4B764"/>
</linearGradient>
<linearGradient id="paint1_linear_22512_64" x1="15" y1="1.82007" x2="15" y2="27.3014" gradientUnits="userSpaceOnUse">
<stop stop-color="#F8E889"/>
<stop offset="1" stop-color="#E4B764"/>
</linearGradient>
<linearGradient id="paint2_linear_22512_64" x1="15" y1="1.82007" x2="15" y2="27.3014" gradientUnits="userSpaceOnUse">
<stop stop-color="#F8E889"/>
<stop offset="1" stop-color="#E4B764"/>
</linearGradient>
<linearGradient id="paint3_linear_22512_64" x1="15" y1="1.82007" x2="15" y2="27.3014" gradientUnits="userSpaceOnUse">
<stop stop-color="#F8E889"/>
<stop offset="1" stop-color="#E4B764"/>
</linearGradient>
<linearGradient id="paint4_linear_22512_64" x1="15" y1="1.82007" x2="15" y2="27.3014" gradientUnits="userSpaceOnUse">
<stop stop-color="#F8E889"/>
<stop offset="1" stop-color="#E4B764"/>
</linearGradient>
<linearGradient id="paint5_linear_22512_64" x1="15" y1="1.82007" x2="15" y2="27.3014" gradientUnits="userSpaceOnUse">
<stop stop-color="#F8E889"/>
<stop offset="1" stop-color="#E4B764"/>
</linearGradient>
<linearGradient id="paint6_linear_22512_64" x1="15" y1="1.82007" x2="15" y2="27.3014" gradientUnits="userSpaceOnUse">
<stop stop-color="#F8E889"/>
<stop offset="1" stop-color="#E4B764"/>
</linearGradient>
<linearGradient id="paint7_linear_22512_64" x1="15" y1="1.82007" x2="15" y2="27.3014" gradientUnits="userSpaceOnUse">
<stop stop-color="#F8E889"/>
<stop offset="1" stop-color="#E4B764"/>
</linearGradient>
<linearGradient id="paint8_linear_22512_64" x1="15" y1="1.82007" x2="15" y2="27.3014" gradientUnits="userSpaceOnUse">
<stop stop-color="#F8E889"/>
<stop offset="1" stop-color="#E4B764"/>
</linearGradient>
</defs>
</svg>
