<svg width="28" height="28" viewBox="0 0 28 28" fill="none" xmlns="http://www.w3.org/2000/svg">
<g clip-path="url(#clip0_22512_319)">
<path d="M14 28C21.732 28 28 21.732 28 14C28 6.26801 21.732 0 14 0C6.26802 0 0 6.26801 0 14C0 21.732 6.26802 28 14 28Z" fill="#FF1D1D"/>
<path d="M14 7.3042L15.511 11.9542H20.4003L16.4447 14.8281L17.9556 19.4781L14 16.6043L10.0445 19.4781L11.5554 14.8281L7.59985 11.9542H12.4891L14 7.3042Z" fill="#F8E889"/>
<path opacity="0.25" d="M22.8799 4.84092C24.9228 8.39006 20.7471 12.3787 15.3863 15.4645C10.0254 18.5504 3.56429 20.0224 2.39668 16.7779C1.00997 12.9248 2.79246 6.23122 8.15337 3.14537C13.5142 0.0595238 20.8369 1.29181 22.8799 4.84092Z" fill="white"/>
</g>
<defs>
<clipPath id="clip0_22512_319">
<rect width="28" height="28" fill="white"/>
</clipPath>
</defs>
</svg>
