<svg width="60" height="30" viewBox="0 0 60 30" fill="none" xmlns="http://www.w3.org/2000/svg">
<g clip-path="url(#clip0_18166_907)">
<rect width="60" height="30" rx="15" fill="url(#paint0_linear_18166_907)"/>
<rect width="30" height="30" rx="15" fill="url(#paint1_linear_18166_907)"/>
<g clip-path="url(#clip1_18166_907)">
<path d="M7.81875 8.92345C8.12422 9.22892 8.61875 9.22892 8.92341 8.92345C9.2281 8.61797 9.2281 8.12345 8.92341 7.81879L7.26642 6.16095C6.96095 5.85547 6.46642 5.85547 6.16172 6.16095C5.85625 6.46642 5.85625 6.96095 6.16172 7.26565L7.81875 8.92345ZM8.28905 20.6172L6.64763 22.2586C6.3453 22.5609 6.3453 23.0508 6.64763 23.3531C6.94996 23.6555 7.43983 23.6555 7.74216 23.3531L9.38358 21.7117C9.68591 21.4094 9.68591 20.9195 9.38358 20.6172C9.08125 20.3149 8.59142 20.3148 8.28905 20.6172ZM15 6.40625C15.4312 6.40625 15.7812 6.05625 15.7812 5.625V3.28125C15.7812 2.85 15.4312 2.5 15 2.5C14.5687 2.5 14.2188 2.85 14.2188 3.28125V5.625C14.2188 6.05625 14.5687 6.40625 15 6.40625ZM22.5164 8.5781L24.1578 6.93668C24.4602 6.63436 24.4602 6.14449 24.1578 5.84216C23.8555 5.53983 23.3656 5.53983 23.0633 5.84216L21.4219 7.48358C21.1195 7.78591 21.1195 8.27578 21.4219 8.5781C21.7242 8.88047 22.2141 8.88047 22.5164 8.5781ZM5.625 14.2188H3.28125C2.85 14.2188 2.5 14.5687 2.5 15C2.5 15.4312 2.85 15.7812 3.28125 15.7812H5.625C6.05625 15.7812 6.40625 15.4312 6.40625 15C6.40625 14.5687 6.05625 14.2188 5.625 14.2188ZM15 23.5938C14.5687 23.5938 14.2188 23.9438 14.2188 24.375V26.7188C14.2188 27.15 14.5687 27.5 15 27.5C15.4312 27.5 15.7812 27.15 15.7812 26.7188V24.375C15.7812 23.9438 15.4312 23.5938 15 23.5938ZM26.7188 14.2188H24.375C23.9438 14.2188 23.5938 14.5687 23.5938 15C23.5938 15.4312 23.9438 15.7812 24.375 15.7812H26.7188C27.15 15.7812 27.5 15.4312 27.5 15C27.5 14.5687 27.15 14.2188 26.7188 14.2188ZM22.1812 21.0766C21.8758 20.7711 21.3813 20.7711 21.0766 21.0766C20.7711 21.3821 20.7711 21.8766 21.0766 22.1812L22.7336 23.8383C23.0391 24.1438 23.5336 24.1438 23.8383 23.8383C24.143 23.5328 24.1438 23.0383 23.8383 22.7336L22.1812 21.0766ZM15 7.96405C11.1141 7.96405 7.96405 11.1141 7.96405 15C7.96405 18.8859 11.1141 22.0359 15 22.0359C18.8859 22.0359 22.0359 18.8859 22.0359 15C22.0359 11.1141 18.8859 7.96405 15 7.96405Z" fill="url(#paint2_linear_18166_907)"/>
<path fill-rule="evenodd" clip-rule="evenodd" d="M15 28.3333C22.3638 28.3333 28.3333 22.3638 28.3333 15C28.3333 7.6362 22.3638 1.66667 15 1.66667C7.6362 1.66667 1.66667 7.6362 1.66667 15C1.66667 22.3638 7.6362 28.3333 15 28.3333ZM15 30C23.2843 30 30 23.2843 30 15C30 6.71573 23.2843 0 15 0C6.71573 0 0 6.71573 0 15C0 23.2843 6.71573 30 15 30Z" fill="url(#paint3_linear_18166_907)"/>
</g>
</g>
<rect x="0.5" y="0.5" width="59" height="29" rx="14.5" stroke="#F8E889"/>
<defs>
<linearGradient id="paint0_linear_18166_907" x1="30" y1="0" x2="30" y2="30" gradientUnits="userSpaceOnUse">
<stop stop-color="#5C5C5C"/>
<stop offset="1"/>
</linearGradient>
<linearGradient id="paint1_linear_18166_907" x1="15" y1="0" x2="15" y2="30" gradientUnits="userSpaceOnUse">
<stop stop-color="#5C5C5C"/>
<stop offset="1"/>
</linearGradient>
<linearGradient id="paint2_linear_18166_907" x1="15" y1="0" x2="15" y2="30" gradientUnits="userSpaceOnUse">
<stop stop-color="#F8E889"/>
<stop offset="1" stop-color="#E4B764"/>
</linearGradient>
<linearGradient id="paint3_linear_18166_907" x1="15" y1="0" x2="15" y2="30" gradientUnits="userSpaceOnUse">
<stop stop-color="#F8E889"/>
<stop offset="1" stop-color="#E4B764"/>
</linearGradient>
<clipPath id="clip0_18166_907">
<rect width="60" height="30" rx="15" fill="white"/>
</clipPath>
<clipPath id="clip1_18166_907">
<rect width="30" height="30" fill="white"/>
</clipPath>
</defs>
</svg>
