<svg width="22" height="22" viewBox="0 0 22 22" fill="none" xmlns="http://www.w3.org/2000/svg">
<g clip-path="url(#clip0_22632_499)">
<g clip-path="url(#clip1_22632_499)">
<path d="M8.7594 18.9507C9.30931 18.8344 12.6601 18.8344 13.21 18.9507C13.6801 19.0593 14.1885 19.313 14.1885 19.8669C14.1611 20.3943 13.8517 20.8618 13.4243 21.1587C12.87 21.5908 12.2195 21.8644 11.5395 21.963C11.1635 22.0118 10.7939 22.0129 10.431 21.963C9.74988 21.8644 9.0994 21.5908 8.54622 21.1576C8.11767 20.8618 7.80828 20.3943 7.78094 19.8669C7.78094 19.313 8.28931 19.0593 8.7594 18.9507ZM11.0496 0C13.3378 0 15.6752 1.08572 17.0636 2.88713C17.9644 4.04708 18.3777 5.20592 18.3777 7.00733V7.47596C18.3777 8.85749 18.7428 9.67178 19.5464 10.6102C20.1553 11.3015 20.3499 12.1889 20.3499 13.1516C20.3499 14.1133 20.034 15.0262 19.401 15.7673C18.5723 16.6558 17.4036 17.2231 16.2109 17.3217C14.4824 17.469 12.7529 17.5931 11.0005 17.5931C9.24688 17.5931 7.51846 17.5189 5.79003 17.3217C4.5962 17.2231 3.42752 16.6558 2.59993 15.7673C1.96694 15.0262 1.6499 14.1133 1.6499 13.1516C1.6499 12.1889 1.84559 11.3015 2.45344 10.6102C3.28212 9.67178 3.62321 8.85749 3.62321 7.47596V7.00733C3.62321 5.15717 4.08457 3.94737 5.0346 2.76305C6.44707 1.03587 8.71119 0 10.9513 0H11.0496Z" fill="url(#paint0_linear_22632_499)"/>
</g>
</g>
<defs>
<linearGradient id="paint0_linear_22632_499" x1="10.9999" y1="0" x2="10.9999" y2="22" gradientUnits="userSpaceOnUse">
<stop stop-color="#F8E889"/>
<stop offset="1" stop-color="#E4B764"/>
</linearGradient>
<clipPath id="clip0_22632_499">
<rect width="22" height="22" fill="white"/>
</clipPath>
<clipPath id="clip1_22632_499">
<rect width="22" height="22" fill="white"/>
</clipPath>
</defs>
</svg>
