<svg width="22" height="22" viewBox="0 0 22 22" fill="none" xmlns="http://www.w3.org/2000/svg">
<g clip-path="url(#clip0_22632_512)">
<g clip-path="url(#clip1_22632_512)">
<path d="M21.4501 16.775C21.4501 19.3569 19.357 21.45 16.7751 21.45C14.1932 21.45 12.1001 19.3569 12.1001 16.775C12.1001 14.193 14.1932 12.1 16.7751 12.1C19.357 12.1 21.4501 14.193 21.4501 16.775Z" fill="url(#paint0_linear_22632_512)"/>
<path d="M7.92166 13.5476L5.72122 13.5456L5.71264 15.1576L7.9221 15.1609L7.92166 13.5476Z" fill="url(#paint1_linear_22632_512)"/>
<path d="M2.65046 15.976L2.64298 17.5914H4.8531L4.85244 15.9757L2.65046 15.976Z" fill="url(#paint2_linear_22632_512)"/>
<path d="M4.84188 13.5456H2.64738L2.64298 15.149C2.7961 15.1925 4.54136 15.1611 4.85244 15.1611C4.85244 14.9426 4.86938 13.6464 4.84188 13.5456Z" fill="url(#paint3_linear_22632_512)"/>
<path d="M5.71286 11.1153L5.7133 12.7294L7.91638 12.7307L7.92232 11.1206L5.71286 11.1153Z" fill="url(#paint4_linear_22632_512)"/>
<path d="M5.71286 17.5883L7.9221 17.591L7.92188 15.9788L5.71748 15.976L5.71286 17.5883Z" fill="url(#paint5_linear_22632_512)"/>
<path d="M13.397 3.31761C13.7926 4.02447 14.9951 3.83769 15.084 3.03161C15.1014 2.87409 15.0884 1.92985 15.0884 1.69181C15.0884 1.34179 15.1458 0.715007 14.992 0.441547C14.8426 0.175567 14.4805 -0.0699529 14.0132 0.0200271C13.6428 0.0910871 13.346 0.359487 13.3051 0.729087C13.2872 0.889467 13.3 1.82667 13.3 2.06603C13.3 2.41693 13.2435 3.04349 13.397 3.31761Z" fill="url(#paint6_linear_22632_512)"/>
<path d="M8.79154 15.1598L10.9816 15.1578L10.981 13.552H8.79154V15.1598Z" fill="url(#paint7_linear_22632_512)"/>
<path d="M4.85442 12.67L4.85266 11.1155C4.5297 11.1155 2.81194 11.0812 2.64342 11.1272L2.64386 12.7259L4.84364 12.7312L4.85442 12.67Z" fill="url(#paint8_linear_22632_512)"/>
<path d="M17.1306 8.68517H14.9201L14.9192 10.2359L14.9234 10.3006H17.1254L17.132 10.2359L17.1306 8.68517Z" fill="url(#paint9_linear_22632_512)"/>
<path d="M19.7627 12.0314C19.4547 11.8501 19.1307 11.6996 18.7952 11.5812C18.7736 10.7228 18.8077 7.36495 18.7866 7.22283L0.980662 7.22811L0.989682 18.9653L11.6357 18.9666C11.7519 19.2762 11.8951 19.5749 12.0645 19.8598C11.2305 19.8618 10.1802 19.8484 9.67198 19.8484H1.80786C1.4123 19.8484 1.15556 19.8684 0.816982 19.7294C0.544402 19.6176 0.359162 19.4423 0.222542 19.2474C0.0425822 18.9917 0.0131023 18.7675 0.0131023 18.4226V4.15977C0.0131023 3.51253 -0.0909578 2.84395 0.287442 2.38943C0.755602 1.82755 1.31396 1.87837 1.97682 1.87837H4.214C4.2184 2.02621 4.2393 2.06383 4.1568 2.15425C3.73462 2.61669 3.66268 3.27185 3.92558 3.82207C4.16296 4.31839 4.77016 4.79359 5.5802 4.79359C6.92484 4.79359 7.86314 3.47711 7.13406 2.32519C6.95058 2.03545 6.93342 2.19451 6.9442 1.87837H12.8299C12.8402 2.18307 12.8349 2.02247 12.633 2.33465C11.9305 3.41969 12.8006 4.79425 14.1952 4.79359C15.5473 4.79315 16.4759 3.47249 15.7497 2.32475C15.566 2.03413 15.5471 2.19297 15.5583 1.87837H17.6485C18.3877 1.87837 18.899 1.83129 19.3366 2.23741C19.4008 2.29703 19.409 2.29615 19.4624 2.36171C19.5891 2.51791 19.6675 2.63495 19.7216 2.84109C19.788 3.09343 19.761 3.46259 19.761 3.73429C19.761 3.73429 19.7766 10.732 19.7627 12.0314Z" fill="url(#paint10_linear_22632_512)"/>
<path d="M4.77544 3.30705C4.91932 3.57303 5.29046 3.82867 5.75862 3.74199C6.13042 3.67313 6.4195 3.39923 6.46724 3.04393C6.48682 2.89697 6.4745 1.93711 6.4745 1.70875C6.4745 1.35741 6.53346 0.733487 6.38298 0.453427C6.23976 0.186347 5.87148 -0.0675329 5.40992 0.0162871C5.03526 0.0842671 4.73804 0.352667 4.69162 0.714567C4.67402 0.853167 4.68634 1.82667 4.68634 2.04931C4.68634 2.38899 4.6331 3.04371 4.77544 3.30705Z" fill="url(#paint11_linear_22632_512)"/>
<path d="M13.131 12.731L11.9241 12.7312L11.8524 12.7292L11.8522 11.1155L14.0614 11.1197L14.0577 12.0441L13.131 12.731Z" fill="url(#paint12_linear_22632_512)"/>
<path d="M13.9886 10.3006L14.0581 10.2989L14.0612 8.68869L11.852 8.68517L11.8522 10.2984L11.9241 10.3011L13.9886 10.3006Z" fill="url(#paint13_linear_22632_512)"/>
<path d="M10.9816 11.1186L8.79154 11.1168L8.7933 12.7252H10.9816V11.1186Z" fill="url(#paint14_linear_22632_512)"/>
<path d="M16.899 22C15.537 22 14.2559 21.4652 13.2919 20.4939C12.3287 19.5257 11.7981 18.2358 11.7981 16.8623C11.7981 15.4889 12.3285 14.1979 13.2919 13.2275C14.2561 12.2575 15.5372 11.7234 16.899 11.7234C18.2608 11.7234 19.5418 12.2575 20.5061 13.2275C21.4695 14.1979 21.9999 15.4887 21.9999 16.8623C21.9999 18.236 21.4693 19.5257 20.5061 20.4941C19.5421 21.4652 18.261 22 16.899 22ZM16.899 12.7853C15.8192 12.7853 14.803 13.2088 14.0381 13.9781C13.274 14.7477 12.8532 15.772 12.8532 16.8623C12.8532 17.9527 13.274 18.9743 14.0381 19.7432C14.8024 20.5137 15.8183 20.9378 16.8988 20.9378C17.9792 20.9378 18.9954 20.5137 19.7594 19.7432C20.5235 18.9728 20.9443 17.9496 20.9443 16.8621C20.9443 15.7747 20.5235 14.7488 19.7594 13.9779C18.9947 13.2088 17.979 12.7853 16.899 12.7853Z" fill="url(#paint15_linear_22632_512)"/>
<path d="M19.9489 14.8153C19.8334 14.6764 19.6745 14.5957 19.5091 14.5763C19.3885 14.5618 19.2645 14.5801 19.1507 14.6324C19.0959 14.6573 19.0438 14.6899 18.9954 14.7303L15.7986 17.4L14.9613 16.6899C14.7078 16.476 14.3439 16.4824 14.0975 16.6864C14.0654 16.713 14.0353 16.7429 14.0078 16.7759C13.8043 17.0208 13.801 17.3666 13.9792 17.6132C14.0111 17.6574 14.0489 17.6984 14.0923 17.7351L15.3647 18.8127C15.572 18.9867 15.8525 19.0148 16.083 18.9079C16.1398 18.882 16.1937 18.8474 16.2425 18.8052L19.8651 15.7756C19.9524 15.7019 20.0166 15.6103 20.0571 15.5107C20.0672 15.486 20.0756 15.4607 20.0826 15.4354C20.1401 15.2267 20.0974 14.9939 19.9489 14.8153Z" fill="#E4B764"/>
</g>
</g>
<defs>
<linearGradient id="paint0_linear_22632_512" x1="16.7751" y1="12.1" x2="16.7751" y2="21.45" gradientUnits="userSpaceOnUse">
<stop stop-color="#FF6761"/>
<stop offset="1" stop-color="#FF1D1D"/>
</linearGradient>
<linearGradient id="paint1_linear_22632_512" x1="11" y1="0" x2="11" y2="22" gradientUnits="userSpaceOnUse">
<stop stop-color="#F8E889"/>
<stop offset="1" stop-color="#E4B764"/>
</linearGradient>
<linearGradient id="paint2_linear_22632_512" x1="11" y1="0" x2="11" y2="22" gradientUnits="userSpaceOnUse">
<stop stop-color="#F8E889"/>
<stop offset="1" stop-color="#E4B764"/>
</linearGradient>
<linearGradient id="paint3_linear_22632_512" x1="11" y1="0" x2="11" y2="22" gradientUnits="userSpaceOnUse">
<stop stop-color="#F8E889"/>
<stop offset="1" stop-color="#E4B764"/>
</linearGradient>
<linearGradient id="paint4_linear_22632_512" x1="11" y1="0" x2="11" y2="22" gradientUnits="userSpaceOnUse">
<stop stop-color="#F8E889"/>
<stop offset="1" stop-color="#E4B764"/>
</linearGradient>
<linearGradient id="paint5_linear_22632_512" x1="11" y1="0" x2="11" y2="22" gradientUnits="userSpaceOnUse">
<stop stop-color="#F8E889"/>
<stop offset="1" stop-color="#E4B764"/>
</linearGradient>
<linearGradient id="paint6_linear_22632_512" x1="11" y1="0" x2="11" y2="22" gradientUnits="userSpaceOnUse">
<stop stop-color="#F8E889"/>
<stop offset="1" stop-color="#E4B764"/>
</linearGradient>
<linearGradient id="paint7_linear_22632_512" x1="11" y1="0" x2="11" y2="22" gradientUnits="userSpaceOnUse">
<stop stop-color="#F8E889"/>
<stop offset="1" stop-color="#E4B764"/>
</linearGradient>
<linearGradient id="paint8_linear_22632_512" x1="11" y1="0" x2="11" y2="22" gradientUnits="userSpaceOnUse">
<stop stop-color="#F8E889"/>
<stop offset="1" stop-color="#E4B764"/>
</linearGradient>
<linearGradient id="paint9_linear_22632_512" x1="11" y1="0" x2="11" y2="22" gradientUnits="userSpaceOnUse">
<stop stop-color="#F8E889"/>
<stop offset="1" stop-color="#E4B764"/>
</linearGradient>
<linearGradient id="paint10_linear_22632_512" x1="11" y1="0" x2="11" y2="22" gradientUnits="userSpaceOnUse">
<stop stop-color="#F8E889"/>
<stop offset="1" stop-color="#E4B764"/>
</linearGradient>
<linearGradient id="paint11_linear_22632_512" x1="11" y1="0" x2="11" y2="22" gradientUnits="userSpaceOnUse">
<stop stop-color="#F8E889"/>
<stop offset="1" stop-color="#E4B764"/>
</linearGradient>
<linearGradient id="paint12_linear_22632_512" x1="11" y1="0" x2="11" y2="22" gradientUnits="userSpaceOnUse">
<stop stop-color="#F8E889"/>
<stop offset="1" stop-color="#E4B764"/>
</linearGradient>
<linearGradient id="paint13_linear_22632_512" x1="11" y1="0" x2="11" y2="22" gradientUnits="userSpaceOnUse">
<stop stop-color="#F8E889"/>
<stop offset="1" stop-color="#E4B764"/>
</linearGradient>
<linearGradient id="paint14_linear_22632_512" x1="11" y1="0" x2="11" y2="22" gradientUnits="userSpaceOnUse">
<stop stop-color="#F8E889"/>
<stop offset="1" stop-color="#E4B764"/>
</linearGradient>
<linearGradient id="paint15_linear_22632_512" x1="11" y1="0" x2="11" y2="22" gradientUnits="userSpaceOnUse">
<stop stop-color="#F8E889"/>
<stop offset="1" stop-color="#E4B764"/>
</linearGradient>
<clipPath id="clip0_22632_512">
<rect width="22" height="22" fill="white"/>
</clipPath>
<clipPath id="clip1_22632_512">
<rect width="22" height="22" fill="white"/>
</clipPath>
</defs>
</svg>
