<svg width="24" height="24" viewBox="0 0 24 24" fill="none" xmlns="http://www.w3.org/2000/svg">
<g clip-path="url(#clip0_22632_879)">
<path fill-rule="evenodd" clip-rule="evenodd" d="M23.121 9.21673L15.536 2.04788C14.5972 1.16334 13.3257 0.666626 12 0.666626C10.6743 0.666626 9.40276 1.16334 8.464 2.04788L0.879011 9.21673C0.599437 9.47924 0.377782 9.79158 0.226894 10.1356C0.0760072 10.4797 -0.0011104 10.8487 1.20795e-05 11.2211V20.4983C1.20795e-05 21.2502 0.316082 21.9713 0.878691 22.5029C1.4413 23.0346 2.20436 23.3333 3.00001 23.3333H21C21.7956 23.3333 22.5587 23.0346 23.1213 22.5029C23.6839 21.9713 24 21.2502 24 20.4983V11.2211C24.0011 10.8487 23.924 10.4797 23.7731 10.1356C23.6222 9.79158 23.4006 9.47924 23.121 9.21673ZM9 17.7256V21.4433H15V17.7256C15 16.9737 14.6839 16.2526 14.1213 15.7209C13.5587 15.1893 12.7956 14.8906 12 14.8906C11.2044 14.8906 10.4413 15.1893 9.87868 15.7209C9.31607 16.2526 9 16.9737 9 17.7256Z" fill="#1A1A1A"/>
</g>
<defs>
<clipPath id="clip0_22632_879">
<rect width="24" height="24" fill="white"/>
</clipPath>
</defs>
</svg>
