<svg width="24" height="24" viewBox="0 0 24 24" fill="none" xmlns="http://www.w3.org/2000/svg">
<g clip-path="url(#clip0_22652_551)">
<g clip-path="url(#clip1_22652_551)">
<path d="M15.3879 22.165L12.0442 23.8086C11.8861 23.8863 11.7035 23.8962 11.5393 23.8379L11.47 23.8086L8.73462 22.4639V17.666L10.1379 15.8896L15.3879 22.165ZM3.81079 20.0449C3.59377 19.9373 3.45831 19.7202 3.45825 19.4844V8.28711C3.45825 7.94264 3.74325 7.65918 4.09888 7.65918H6.27173V21.2529L3.81177 20.0449H3.81079ZM19.4153 7.65918C19.7707 7.65937 20.0549 7.94275 20.0549 8.28711V19.4844C20.0549 19.7206 19.9191 19.9375 19.7014 20.0449L17.7219 21.0166L11.885 13.6895L17.2268 7.65918H19.4153ZM14.1604 7.65918L8.73364 14.1016V7.65918H14.1604ZM15.8274 3.32812V3.32715C15.882 3.37053 15.956 3.37565 16.0149 3.33887L19.967 0.865234V5.93945H3.55493V0.866211L7.5061 3.33887L7.51099 3.3418C7.56557 3.37239 7.63858 3.37136 7.6936 3.32812L7.69263 3.32715L11.76 0.147461L15.8274 3.32812Z" fill="url(#paint0_linear_22652_551)" stroke="#E8E8E8" stroke-width="0.25"/>
</g>
</g>
<defs>
<linearGradient id="paint0_linear_22652_551" x1="3.33325" y1="12" x2="20.1803" y2="12" gradientUnits="userSpaceOnUse">
<stop stop-color="#B9B9B9"/>
<stop offset="0.195" stop-color="white"/>
<stop offset="0.465" stop-color="#F4F5F7"/>
<stop offset="0.78" stop-color="#B9B9B9"/>
<stop offset="1" stop-color="white"/>
</linearGradient>
<clipPath id="clip0_22652_551">
<rect width="24" height="24" fill="white"/>
</clipPath>
<clipPath id="clip1_22652_551">
<rect width="24" height="24" fill="white"/>
</clipPath>
</defs>
</svg>
