<svg width="22" height="22" viewBox="0 0 22 22" fill="none" xmlns="http://www.w3.org/2000/svg">
<g clip-path="url(#clip0_22632_506)">
<path d="M0.701557 5.2384L9.86822 10.1627C10.1762 10.3277 10.5747 10.406 10.9756 10.406C11.3764 10.406 11.7749 10.3277 12.0829 10.1627L21.2496 5.2384C21.8472 4.91696 22.4119 3.66663 21.3156 3.66663H0.63678C-0.459553 3.66663 0.105113 4.91696 0.701557 5.2384ZM21.527 7.93096L12.0829 12.8528C11.6673 13.0704 11.3764 13.0961 10.9756 13.0961C10.5747 13.0961 10.2838 13.0704 9.86822 12.8528C9.45267 12.6353 1.15011 8.28296 0.47178 7.92974C-0.00488688 7.6804 1.97519e-06 7.97251 1.97519e-06 8.1974V17.1111C1.97519e-06 17.6244 0.69178 18.3333 1.22222 18.3333H20.7778C21.3082 18.3333 22 17.6244 22 17.1111V8.19863C22 7.97374 22.0049 7.68163 21.527 7.93096Z" fill="url(#paint0_linear_22632_506)"/>
</g>
<defs>
<linearGradient id="paint0_linear_22632_506" x1="11" y1="3.66663" x2="11" y2="18.3333" gradientUnits="userSpaceOnUse">
<stop stop-color="#F8E889"/>
<stop offset="1" stop-color="#E4B764"/>
</linearGradient>
<clipPath id="clip0_22632_506">
<rect width="22" height="22" fill="white"/>
</clipPath>
</defs>
</svg>
