<svg width="24" height="24" viewBox="0 0 24 24" fill="none" xmlns="http://www.w3.org/2000/svg">
<g clip-path="url(#clip0_22632_887)">
<path d="M13.1341 12.9605C12.8585 13.2355 12.46 13.3963 12.0488 13.3963C11.6375 13.3963 11.239 13.2355 10.9634 12.9605C10.3869 12.385 10.3869 11.3738 10.9634 10.7941L11.7986 9.96051C10.7472 10.0494 9.91627 10.9295 9.91627 12.0042C9.91627 13.1382 10.8362 14.0564 11.9724 14.0564C13.1086 14.0564 13.9905 13.1763 14.0244 12.0719L13.1298 12.9647L13.1341 12.9605Z" fill="url(#paint0_linear_22632_887)"/>
<path d="M16.0806 10.0197C16.3731 10.6206 16.5342 11.2934 16.5342 12C16.5342 14.5134 14.4907 16.5487 11.9767 16.5487C9.46264 16.5487 7.41918 14.5092 7.41918 12C7.41918 9.49083 9.46264 7.45134 11.9767 7.45134C12.6635 7.45134 13.3121 7.60367 13.893 7.87447L15.7371 6.03385C14.6476 5.34838 13.3588 4.95063 11.9767 4.95063C8.07631 4.95063 4.91362 8.10719 4.91362 12C4.91362 15.8928 8.07631 19.0494 11.9767 19.0494C15.8771 19.0494 19.0397 15.8928 19.0397 12C19.0397 10.5952 18.6285 9.2835 17.9163 8.18336L16.0806 10.0155V10.0197Z" fill="url(#paint1_linear_22632_887)"/>
<path d="M21.0154 7.24401L20.0784 7.01975C20.973 8.46686 21.4902 10.1763 21.4902 12.0042C21.4902 17.2511 17.2295 21.5078 11.9682 21.5078C6.70694 21.5078 2.45469 17.2511 2.45469 12C2.45469 6.74894 6.71542 2.50071 11.9767 2.50071C13.7658 2.50071 15.4404 2.99577 16.8691 3.85049L16.6444 2.92807L17.9883 1.58674C16.2332 0.575458 14.1982 0 12.0276 0C5.36301 0 0 5.35261 0 12C0 18.6474 5.36301 24 12.0233 24C16.7843 24 20.8924 21.1989 22.8468 17.2003C23.4997 15.7997 23.8983 14.3018 24 12.6516V12C24 9.77433 23.398 7.69253 22.3508 5.91114L21.0154 7.24401Z" fill="url(#paint2_linear_22632_887)"/>
<path d="M23.6991 3.55013L21.0451 2.8985L20.3922 0.198926L17.4373 3.14815L17.8697 4.91684L11.4722 11.3019C11.1712 11.6023 11.1712 12.1524 11.4722 12.4528C11.7732 12.7532 12.3244 12.7532 12.6254 12.4528L19.0568 6.03391L20.795 6.4528L23.6991 3.55436V3.55013Z" fill="url(#paint3_linear_22632_887)"/>
</g>
<defs>
<linearGradient id="paint0_linear_22632_887" x1="12" y1="0" x2="12" y2="24" gradientUnits="userSpaceOnUse">
<stop stop-color="#5C5C5C"/>
<stop offset="1"/>
</linearGradient>
<linearGradient id="paint1_linear_22632_887" x1="12" y1="0" x2="12" y2="24" gradientUnits="userSpaceOnUse">
<stop stop-color="#5C5C5C"/>
<stop offset="1"/>
</linearGradient>
<linearGradient id="paint2_linear_22632_887" x1="12" y1="0" x2="12" y2="24" gradientUnits="userSpaceOnUse">
<stop stop-color="#5C5C5C"/>
<stop offset="1"/>
</linearGradient>
<linearGradient id="paint3_linear_22632_887" x1="12" y1="0" x2="12" y2="24" gradientUnits="userSpaceOnUse">
<stop stop-color="#5C5C5C"/>
<stop offset="1"/>
</linearGradient>
<clipPath id="clip0_22632_887">
<rect width="24" height="24" fill="white"/>
</clipPath>
</defs>
</svg>
