<svg width="24" height="24" viewBox="0 0 24 24" fill="none" xmlns="http://www.w3.org/2000/svg">
<g clip-path="url(#clip0_22632_896)">
<g clip-path="url(#clip1_22632_896)">
<path d="M4.27498 6.67554V8.27694C3.95638 8.27694 3.64738 8.27694 3.33838 8.27694C2.85718 8.27694 2.57038 8.43474 2.57278 8.69754C2.57518 8.95434 2.86318 9.10674 3.34978 9.10674C9.10618 9.10674 14.8632 9.10614 20.6196 9.10734C21.8316 9.10734 22.956 10.0379 23.0706 11.1431C23.1408 11.8217 23.0838 12.5129 23.0838 13.2419H22.845C21.444 13.2419 20.0424 13.2347 18.6414 13.2437C16.998 13.2545 15.5922 14.4377 15.3132 15.9659C14.9952 17.7071 16.1484 19.3721 17.8614 19.7561C18.1254 19.8155 18.3996 19.8563 18.6696 19.8587C20.0526 19.8689 21.4362 19.8641 22.8198 19.8641C22.9158 19.8641 23.0118 19.8641 23.1882 19.8641C23.1336 20.6741 23.172 21.4751 23.007 22.2347C22.7814 23.2745 21.6756 23.9999 20.568 23.9993C14.5524 23.9981 8.53738 24.0005 2.52178 23.9975C1.30918 23.9969 0.225579 23.0693 0.0611795 21.9689C0.0311795 21.7673 0.0083795 21.5621 0.0077795 21.3587C0.0041795 17.2385 -0.0090205 13.1189 0.0125795 8.99874C0.0185795 7.84974 0.926979 6.83874 2.08798 6.69174C2.79538 6.60234 3.52498 6.67554 4.27558 6.67554H4.27498Z" fill="url(#paint0_linear_22632_896)"/>
<path d="M12.9684 4.09614C12.6624 4.79634 12.357 5.49414 12.0516 6.19194C11.7726 6.82914 11.4966 7.46694 11.2104 8.10054C11.178 8.17194 11.0886 8.26794 11.0238 8.26974C10.4454 8.28294 9.86638 8.27754 9.24478 8.27754C9.28318 8.14674 9.30298 8.04054 9.34498 7.94334C10.3404 5.66274 11.3406 3.38454 12.3336 1.10334C12.7242 0.206337 13.7256 -0.258063 14.721 0.148137C17.1612 1.14354 19.6038 2.13474 22.041 3.13854C23.0022 3.53454 23.3976 4.52754 22.9776 5.44374C22.5696 6.33414 22.155 7.22214 21.7356 8.10774C21.7026 8.17734 21.6114 8.26854 21.5454 8.26974C20.994 8.28294 20.442 8.27694 19.8114 8.27694C19.9866 7.86294 20.1438 7.49154 20.301 7.12074C18.7536 6.34674 18.4254 4.86474 18.8988 3.72774C18.0984 3.39834 17.2974 3.06894 16.4718 2.72934C16.1472 3.35634 15.6846 3.84714 15 4.10454C14.3322 4.35594 13.6602 4.36794 12.9678 4.09554L12.9684 4.09614Z" fill="url(#paint1_linear_22632_896)"/>
<path d="M20.9868 14.0717C21.7008 14.0717 22.4142 14.0717 23.1282 14.0717C23.6292 14.0723 23.994 14.4287 23.994 14.9159C23.994 16.0019 23.9808 17.0873 24 18.1727C24.0078 18.6053 23.6148 19.0409 23.0916 19.0367C21.6732 19.0265 20.2542 19.0511 18.8358 19.0283C17.6844 19.0103 16.6692 18.1907 16.4418 17.1047C16.254 16.2077 16.4712 15.4235 17.1372 14.7791C17.6232 14.3093 18.2304 14.0717 18.9264 14.0705C19.6134 14.0693 20.3004 14.0705 20.9874 14.0705L20.9868 14.0717ZM19.689 17.4857C20.277 17.4881 20.676 17.1083 20.6778 16.5455C20.6796 16.0199 20.2704 15.6191 19.728 15.6149C19.1694 15.6107 18.7368 16.0115 18.7362 16.5341C18.7362 17.0837 19.1358 17.4839 19.689 17.4863V17.4857Z" fill="url(#paint2_linear_22632_896)"/>
<path d="M11.28 0.993537C11.148 1.29774 11.0172 1.60194 10.884 1.90554C9.98758 3.95634 9.08758 6.00594 8.19958 8.05974C8.12458 8.23374 8.03638 8.29494 7.84978 8.28174C7.64818 8.26734 7.44418 8.27874 7.19578 8.27874C7.29718 7.90674 7.38838 7.57134 7.48018 7.23714C7.95058 5.51994 8.42218 3.80274 8.89078 2.08494C9.06178 1.45854 9.66778 0.938337 10.3296 0.887937C10.6278 0.865137 10.9296 0.884337 11.2296 0.884337C11.2464 0.920937 11.2632 0.958137 11.28 0.994737V0.993537Z" fill="url(#paint3_linear_22632_896)"/>
<path d="M12.6012 8.26314C12.5448 7.45014 13.1652 6.53394 14.0364 6.21954C15.2856 5.76954 16.452 5.93934 17.5116 6.74394C17.97 7.09194 18.2976 7.52334 18.4896 8.05254C18.5118 8.11434 18.5238 8.17974 18.5454 8.26314H12.6012Z" fill="url(#paint4_linear_22632_896)"/>
<path d="M7.84018 1.72374C7.23598 3.91734 6.63598 6.09294 6.03658 8.26854H5.24758C5.28898 7.92054 5.32438 7.58514 5.36938 7.25094C5.45158 6.64314 5.53738 6.03594 5.62618 5.42934C5.71078 4.84794 5.80198 4.26774 5.88898 3.68694C5.92438 3.45114 5.95198 3.21474 5.99338 2.98014C6.12538 2.22354 7.03738 1.57434 7.84018 1.72434V1.72374Z" fill="url(#paint5_linear_22632_896)"/>
</g>
</g>
<defs>
<linearGradient id="paint0_linear_22632_896" x1="12.0003" y1="-0.00012207" x2="12.0003" y2="23.9993" gradientUnits="userSpaceOnUse">
<stop stop-color="#5C5C5C"/>
<stop offset="1"/>
</linearGradient>
<linearGradient id="paint1_linear_22632_896" x1="12.0003" y1="-0.00012207" x2="12.0003" y2="23.9993" gradientUnits="userSpaceOnUse">
<stop stop-color="#5C5C5C"/>
<stop offset="1"/>
</linearGradient>
<linearGradient id="paint2_linear_22632_896" x1="12.0003" y1="-0.00012207" x2="12.0003" y2="23.9993" gradientUnits="userSpaceOnUse">
<stop stop-color="#5C5C5C"/>
<stop offset="1"/>
</linearGradient>
<linearGradient id="paint3_linear_22632_896" x1="12.0003" y1="-0.00012207" x2="12.0003" y2="23.9993" gradientUnits="userSpaceOnUse">
<stop stop-color="#5C5C5C"/>
<stop offset="1"/>
</linearGradient>
<linearGradient id="paint4_linear_22632_896" x1="12.0003" y1="-0.00012207" x2="12.0003" y2="23.9993" gradientUnits="userSpaceOnUse">
<stop stop-color="#5C5C5C"/>
<stop offset="1"/>
</linearGradient>
<linearGradient id="paint5_linear_22632_896" x1="12.0003" y1="-0.00012207" x2="12.0003" y2="23.9993" gradientUnits="userSpaceOnUse">
<stop stop-color="#5C5C5C"/>
<stop offset="1"/>
</linearGradient>
<clipPath id="clip0_22632_896">
<rect width="24" height="24" fill="white"/>
</clipPath>
<clipPath id="clip1_22632_896">
<rect width="24" height="24" fill="white"/>
</clipPath>
</defs>
</svg>
