<svg width="19" height="22" viewBox="0 0 19 22" fill="none" xmlns="http://www.w3.org/2000/svg">
<path d="M7.1095 18.9507C7.6594 18.8344 11.0102 18.8344 11.5601 18.9507C12.0302 19.0593 12.5386 19.313 12.5386 19.8669C12.5112 20.3943 12.2018 20.8618 11.7744 21.1587C11.2201 21.5908 10.5696 21.8644 9.88963 21.963C9.51355 22.0118 9.14403 22.0129 8.78107 21.963C8.09998 21.8644 7.4495 21.5908 6.89632 21.1576C6.46776 20.8618 6.15837 20.3943 6.13104 19.8669C6.13104 19.313 6.6394 19.0593 7.1095 18.9507ZM9.39974 0C11.6879 0 14.0253 1.08572 15.4137 2.88713C16.3145 4.04708 16.7278 5.20592 16.7278 7.00733V7.47596C16.7278 8.85749 17.0929 9.67178 17.8965 10.6102C18.5054 11.3015 18.7 12.1889 18.7 13.1516C18.7 14.1133 18.3841 15.0262 17.7511 15.7673C16.9224 16.6558 15.7537 17.2231 14.561 17.3217C12.8325 17.469 11.103 17.5931 9.35055 17.5931C7.59698 17.5931 5.86855 17.5189 4.14013 17.3217C2.9463 17.2231 1.77762 16.6558 0.950032 15.7673C0.317042 15.0262 0 14.1133 0 13.1516C0 12.1889 0.195691 11.3015 0.803537 10.6102C1.63222 9.67178 1.97331 8.85749 1.97331 7.47596V7.00733C1.97331 5.15717 2.43466 3.94737 3.3847 2.76305C4.79717 1.03587 7.06129 0 9.30135 0H9.39974Z" fill="url(#paint0_linear_22632_501)"/>
<defs>
<linearGradient id="paint0_linear_22632_501" x1="9.35" y1="0" x2="9.35" y2="22" gradientUnits="userSpaceOnUse">
<stop stop-color="#F8E889"/>
<stop offset="1" stop-color="#E4B764"/>
</linearGradient>
</defs>
</svg>
